<svg xmlns="http://www.w3.org/2000/svg" viewBox="0 0 640 520" role="img" aria-label="Openbaar bericht op sociale media, zichtbaar voor een breed publiek"><defs><filter id="sh" x="-20%" y="-20%" width="140%" height="160%"><feDropShadow dx="0" dy="4" stdDeviation="6" flood-color="#0d1d44" flood-opacity=".18"/></filter></defs><rect width="640" height="520" fill="none"/><circle cx="320" cy="270" r="220" fill="#e3edfb"/><circle cx="520" cy="110" r="46" fill="#d2e2f8"/><g filter="url(#sh)"><rect x="220" y="40" width="200" height="420" rx="30" fill="#17213d"/></g><rect x="232" y="58" width="176" height="386" rx="20" fill="#fff"/><rect x="290" y="46" width="60" height="8" rx="4" fill="#2c3757"/><rect x="232" y="58" width="176" height="44" rx="20" fill="#2554b3"/><rect x="232" y="84" width="176" height="18" fill="#2554b3"/><circle cx="256" cy="80" r="11" fill="#fff" opacity=".9"/><rect x="274" y="74" width="70" height="10" rx="5" fill="#fff" opacity=".9"/><circle cx="254" cy="126" r="12" fill="#c7864e"/><rect x="272" y="118" width="80" height="8" rx="4" fill="#c5d0e4"/><rect x="272" y="130" width="50" height="6" rx="3" fill="#dde4f0"/><rect x="244" y="148" width="152" height="96" rx="10" fill="#dbe8fa"/><path d="M244 226l40-36 30 26 24-18 58 44v4c0 5-4 8-8 8H252c-4 0-8-3-8-8z" fill="#9dbbe8"/><circle cx="364" cy="172" r="10" fill="#f5c451"/><path d="M250 260h20M280 260h20M310 260h20" stroke="#8fa0c0" stroke-width="5" stroke-linecap="round"/><circle cx="254" cy="294" r="10" fill="#5e7d6a"/><rect x="270" y="282" width="124" height="34" rx="10" fill="#eef2f8"/><rect x="280" y="290" width="90" height="6" rx="3" fill="#b8c3d8"/><rect x="280" y="302" width="60" height="6" rx="3" fill="#cfd7e6"/><circle cx="254" cy="342" r="10" fill="#7c4d78"/><rect x="270" y="330" width="124" height="34" rx="10" fill="#eef2f8"/><rect x="280" y="338" width="70" height="6" rx="3" fill="#b8c3d8"/><rect x="280" y="350" width="84" height="6" rx="3" fill="#cfd7e6"/><circle cx="254" cy="390" r="10" fill="#737886"/><rect x="270" y="378" width="124" height="34" rx="10" fill="#eef2f8"/><rect x="280" y="386" width="96" height="6" rx="3" fill="#b8c3d8"/><rect x="280" y="398" width="50" height="6" rx="3" fill="#cfd7e6"/><g transform="translate(466 250)" filter="url(#sh)"><circle r="46" fill="#fff"/></g><g transform="translate(466 250)" fill="none" stroke="#2554b3" stroke-width="4"><circle r="26"/><path d="M-26 0h52M0-26c-12 14-12 38 0 52M0-26c12 14 12 38 0 52"/></g><g transform="translate(160 170)" filter="url(#sh)"><circle r="40" fill="#fff"/></g><g transform="translate(160 170)" fill="#2554b3"><circle cx="-12" cy="-8" r="8"/><circle cx="12" cy="-8" r="8"/><path d="M-28 16c2-14 30-14 32 0zM-4 16c2-14 30-14 32 0z"/></g></svg>