<svg xmlns="http://www.w3.org/2000/svg" viewBox="0 0 640 460" role="img" aria-label="Druk plein bij daglicht"><defs><filter id="sh" x="-20%" y="-20%" width="140%" height="160%"><feDropShadow dx="0" dy="4" stdDeviation="6" flood-color="#0d1d44" flood-opacity=".18"/></filter></defs><defs><linearGradient id="sky0" x1="0" y1="0" x2="0" y2="1"><stop offset="0" stop-color="#e9f2fd"/><stop offset="1" stop-color="#d7e6fa"/></linearGradient></defs><rect width="640" height="460" fill="url(#sky0)"/><circle cx="530" cy="70" r="30" fill="#fff" opacity=".9"/><rect x="-20" y="50" width="150" height="300" fill="#c7d6ee"/><rect x="-24" y="42" width="158" height="10" fill="#c7d6ee" opacity=".85"/><rect x="-8" y="68" width="33" height="28" rx="2" fill="#dfe9f7"/><rect x="35" y="68" width="33" height="28" rx="2" fill="#dfe9f7"/><rect x="79" y="68" width="33" height="28" rx="2" fill="#dfe9f7"/><rect x="-8" y="110" width="33" height="28" rx="2" fill="#dfe9f7"/><rect x="35" y="110" width="33" height="28" rx="2" fill="#dfe9f7"/><rect x="79" y="110" width="33" height="28" rx="2" fill="#dfe9f7"/><rect x="-8" y="152" width="33" height="28" rx="2" fill="#dfe9f7"/><rect x="35" y="152" width="33" height="28" rx="2" fill="#dfe9f7"/><rect x="79" y="152" width="33" height="28" rx="2" fill="#dfe9f7"/><rect x="-8" y="194" width="33" height="28" rx="2" fill="#dfe9f7"/><rect x="35" y="194" width="33" height="28" rx="2" fill="#dfe9f7"/><rect x="79" y="194" width="33" height="28" rx="2" fill="#dfe9f7"/><rect x="-12" y="284" width="134" height="66" fill="#eef4fc"/><path d="M-16 272h142l-8 16H-8z" fill="#2d4a8a"/><path d="M-16 288q8 10 16 0" fill="#2d4a8a" opacity=".0"/><path d="M0 288q8 10 16 0" fill="#2d4a8a" opacity=".0"/><path d="M16 288q8 10 16 0" fill="#2d4a8a" opacity=".0"/><path d="M32 288q8 10 16 0" fill="#2d4a8a" opacity=".0"/><path d="M48 288q8 10 16 0" fill="#2d4a8a" opacity=".0"/><path d="M64 288q8 10 16 0" fill="#2d4a8a" opacity=".0"/><path d="M80 288q8 10 16 0" fill="#2d4a8a" opacity=".0"/><path d="M96 288q8 10 16 0" fill="#2d4a8a" opacity=".0"/><rect x="43.0" y="296" width="24" height="54" fill="#c4d4ea"/><rect x="136" y="100" width="120" height="250" fill="#b6c8e6"/><rect x="132" y="92" width="128" height="10" fill="#b6c8e6" opacity=".85"/><rect x="148" y="118" width="23" height="28" rx="2" fill="#dfe9f7"/><rect x="181" y="118" width="23" height="28" rx="2" fill="#dfe9f7"/><rect x="215" y="118" width="23" height="28" rx="2" fill="#dfe9f7"/><rect x="148" y="160" width="23" height="28" rx="2" fill="#dfe9f7"/><rect x="181" y="160" width="23" height="28" rx="2" fill="#dfe9f7"/><rect x="215" y="160" width="23" height="28" rx="2" fill="#dfe9f7"/><rect x="148" y="202" width="23" height="28" rx="2" fill="#dfe9f7"/><rect x="181" y="202" width="23" height="28" rx="2" fill="#dfe9f7"/><rect x="215" y="202" width="23" height="28" rx="2" fill="#dfe9f7"/><rect x="148" y="244" width="23" height="28" rx="2" fill="#dfe9f7"/><rect x="181" y="244" width="23" height="28" rx="2" fill="#dfe9f7"/><rect x="215" y="244" width="23" height="28" rx="2" fill="#dfe9f7"/><rect x="262" y="20" width="170" height="330" fill="#d3def0"/><rect x="258" y="12" width="178" height="10" fill="#d3def0" opacity=".85"/><rect x="274" y="38" width="40" height="28" rx="2" fill="#dfe9f7"/><rect x="324" y="38" width="40" height="28" rx="2" fill="#dfe9f7"/><rect x="374" y="38" width="40" height="28" rx="2" fill="#dfe9f7"/><rect x="274" y="80" width="40" height="28" rx="2" fill="#dfe9f7"/><rect x="324" y="80" width="40" height="28" rx="2" fill="#dfe9f7"/><rect x="374" y="80" width="40" height="28" rx="2" fill="#dfe9f7"/><rect x="274" y="122" width="40" height="28" rx="2" fill="#dfe9f7"/><rect x="324" y="122" width="40" height="28" rx="2" fill="#dfe9f7"/><rect x="374" y="122" width="40" height="28" rx="2" fill="#dfe9f7"/><rect x="274" y="164" width="40" height="28" rx="2" fill="#dfe9f7"/><rect x="324" y="164" width="40" height="28" rx="2" fill="#dfe9f7"/><rect x="374" y="164" width="40" height="28" rx="2" fill="#dfe9f7"/><rect x="270" y="284" width="154" height="66" fill="#eef4fc"/><path d="M266 272h162l-8 16H274z" fill="#e2a23a"/><path d="M266 288q8 10 16 0" fill="#e2a23a" opacity=".0"/><path d="M282 288q8 10 16 0" fill="#e2a23a" opacity=".0"/><path d="M298 288q8 10 16 0" fill="#e2a23a" opacity=".0"/><path d="M314 288q8 10 16 0" fill="#e2a23a" opacity=".0"/><path d="M330 288q8 10 16 0" fill="#e2a23a" opacity=".0"/><path d="M346 288q8 10 16 0" fill="#e2a23a" opacity=".0"/><path d="M362 288q8 10 16 0" fill="#e2a23a" opacity=".0"/><path d="M378 288q8 10 16 0" fill="#e2a23a" opacity=".0"/><path d="M394 288q8 10 16 0" fill="#e2a23a" opacity=".0"/><path d="M410 288q8 10 16 0" fill="#e2a23a" opacity=".0"/><rect x="335.0" y="296" width="24" height="54" fill="#c4d4ea"/><rect x="438" y="80" width="130" height="270" fill="#a9bee2"/><rect x="434" y="72" width="138" height="10" fill="#a9bee2" opacity=".85"/><rect x="450" y="98" width="27" height="28" rx="2" fill="#dfe9f7"/><rect x="487" y="98" width="27" height="28" rx="2" fill="#dfe9f7"/><rect x="523" y="98" width="27" height="28" rx="2" fill="#dfe9f7"/><rect x="450" y="140" width="27" height="28" rx="2" fill="#dfe9f7"/><rect x="487" y="140" width="27" height="28" rx="2" fill="#dfe9f7"/><rect x="523" y="140" width="27" height="28" rx="2" fill="#dfe9f7"/><rect x="450" y="182" width="27" height="28" rx="2" fill="#dfe9f7"/><rect x="487" y="182" width="27" height="28" rx="2" fill="#dfe9f7"/><rect x="523" y="182" width="27" height="28" rx="2" fill="#dfe9f7"/><rect x="450" y="224" width="27" height="28" rx="2" fill="#dfe9f7"/><rect x="487" y="224" width="27" height="28" rx="2" fill="#dfe9f7"/><rect x="523" y="224" width="27" height="28" rx="2" fill="#dfe9f7"/><rect x="446" y="284" width="114" height="66" fill="#eef4fc"/><path d="M442 272h122l-8 16H450z" fill="#2d4a8a"/><path d="M442 288q8 10 16 0" fill="#2d4a8a" opacity=".0"/><path d="M458 288q8 10 16 0" fill="#2d4a8a" opacity=".0"/><path d="M474 288q8 10 16 0" fill="#2d4a8a" opacity=".0"/><path d="M490 288q8 10 16 0" fill="#2d4a8a" opacity=".0"/><path d="M506 288q8 10 16 0" fill="#2d4a8a" opacity=".0"/><path d="M522 288q8 10 16 0" fill="#2d4a8a" opacity=".0"/><path d="M538 288q8 10 16 0" fill="#2d4a8a" opacity=".0"/><rect x="491.0" y="296" width="24" height="54" fill="#c4d4ea"/><rect x="574" y="40" width="160" height="310" fill="#c1d1ec"/><rect x="570" y="32" width="168" height="10" fill="#c1d1ec" opacity=".85"/><rect x="586" y="58" width="37" height="28" rx="2" fill="#dfe9f7"/><rect x="633" y="58" width="37" height="28" rx="2" fill="#dfe9f7"/><rect x="679" y="58" width="37" height="28" rx="2" fill="#dfe9f7"/><rect x="586" y="100" width="37" height="28" rx="2" fill="#dfe9f7"/><rect x="633" y="100" width="37" height="28" rx="2" fill="#dfe9f7"/><rect x="679" y="100" width="37" height="28" rx="2" fill="#dfe9f7"/><rect x="586" y="142" width="37" height="28" rx="2" fill="#dfe9f7"/><rect x="633" y="142" width="37" height="28" rx="2" fill="#dfe9f7"/><rect x="679" y="142" width="37" height="28" rx="2" fill="#dfe9f7"/><rect x="586" y="184" width="37" height="28" rx="2" fill="#dfe9f7"/><rect x="633" y="184" width="37" height="28" rx="2" fill="#dfe9f7"/><rect x="679" y="184" width="37" height="28" rx="2" fill="#dfe9f7"/><rect x="0" y="350" width="640" height="110" fill="#cfdaea"/><path d="M0 356H640" stroke="#b7c5dc" stroke-width="3"/><path d="M0 400h50" stroke="#bccade" stroke-width="3"/><path d="M90 400h50" stroke="#bccade" stroke-width="3"/><path d="M180 400h50" stroke="#bccade" stroke-width="3"/><path d="M270 400h50" stroke="#bccade" stroke-width="3"/><path d="M360 400h50" stroke="#bccade" stroke-width="3"/><path d="M450 400h50" stroke="#bccade" stroke-width="3"/><path d="M540 400h50" stroke="#bccade" stroke-width="3"/><path d="M630 400h50" stroke="#bccade" stroke-width="3"/><path d="M76.8 350V160" stroke="#44506a" stroke-width="6"/><rect x="66.8" y="144" width="20" height="22" rx="4" fill="#44506a"/><rect x="559.2" y="270" width="8" height="80" fill="#6b5842"/><circle cx="563.2" cy="240" r="44" fill="#7fb08f"/><circle cx="589.2" cy="260" r="30" fill="#6ca17e"/><g opacity=".35" fill="#7d8fb0"><circle cx="60" cy="276.4" r="11.200000000000001"/><rect x="47.2" y="289.2" width="25.6" height="60.800000000000004" rx="9.600000000000001"/></g><g opacity=".35" fill="#7d8fb0"><circle cx="130" cy="285.6" r="9.799999999999999"/><rect x="118.8" y="296.8" width="22.4" height="53.199999999999996" rx="8.399999999999999"/></g><g opacity=".35" fill="#7d8fb0"><circle cx="420" cy="281.0" r="10.5"/><rect x="408.0" y="293.0" width="24.0" height="57.0" rx="9.0"/></g><g opacity=".35" fill="#7d8fb0"><circle cx="480" cy="271.8" r="11.9"/><rect x="466.4" y="285.4" width="27.2" height="64.6" rx="10.2"/></g><g opacity=".35" fill="#7d8fb0"><circle cx="580" cy="285.6" r="9.799999999999999"/><rect x="568.8" y="296.8" width="22.4" height="53.199999999999996" rx="8.399999999999999"/></g><circle cx="90" cy="70" r="34" fill="#f5c451"/><g stroke="#f5c451" stroke-width="5" stroke-linecap="round"><path d="M138 70l10 0"/><path d="M42 70l-10 0"/><path d="M90 118l0 10"/><path d="M90 22l0 -10"/><path d="M123.6 103.6l7.0 7.0"/><path d="M56.400000000000006 103.6l-7.0 7.0"/><path d="M123.6 36.400000000000006l7.0 -7.0"/><path d="M56.400000000000006 36.400000000000006l-7.0 -7.0"/></g><g transform="translate(338.0 -11.599999999999966) scale(-0.42 0.42)"><defs><linearGradient id="pl1c" x1="0" y1="0" x2="1" y2="1"><stop offset="0" stop-color="#5e7d6a"/><stop offset="1" stop-color="#3b5345"/></linearGradient></defs><path d="M118 520 L120 866 L190 866 L200 560 Z" fill="#3a3a42"/><path d="M282 520 L280 866 L210 866 L200 560 Z" fill="#2e2e35"/><path d="M116 862h76v16c0 6-4 10-10 10h-74c-8 0-10-8-4-12z" fill="#2a2a30"/><path d="M208 862h76l12 14c6 4 4 12-4 12h-74c-6 0-10-4-10-10z" fill="#2a2a30"/><path d="M182 186h36v52c-10 8-26 8-36 0z" fill="#d9a07a"/><path d="M182 196c10 14 26 14 36 2v14c-12 8-24 8-36 0z" fill="#bf845f"/><path d="M170 236c10 16 50 16 60 0v40h-60z" fill="#efeae2"/><path d="M200 234c-40 0-70 8-82 28-12 20-14 90-12 278H294c2-188 0-214-12-244c-12-20-42-28-82-28z" fill="url(#pl1c)"/><clipPath id="pl1tc"><path d="M200 234c-40 0-70 8-82 28-12 20-14 90-12 278H294c2-188 0-214-12-244c-12-20-42-28-82-28z"/></clipPath><g clip-path="url(#pl1tc)"><path d="M232 230 L320 230 L320 540 L262 540 C270 420 262 300 232 230z" fill="#000" opacity=".12"/><path d="M110 250 C124 300 126 400 126 540 L96 540 L96 250z" fill="#fff" opacity=".06"/></g><path d="M160 236c10 30 70 30 80 0l10 8c-6 40-94 40-100 0z" fill="#3b5345"/><path d="M200 300V540" stroke="#3b5345" stroke-width="4"/><path d="M186 270l-4 50M214 270l4 50" stroke="#e7e2d8" stroke-width="3"/><path d="M124 274 L110 400 L114 500" fill="none" stroke="#3b5345" stroke-width="48" stroke-linecap="round" stroke-linejoin="round"/><path d="M124 274 L110 400 L114 500" fill="none" stroke="#5e7d6a" stroke-width="44" stroke-linecap="round" stroke-linejoin="round"/><g transform="rotate(0 114 506)"><ellipse cx="114" cy="506" rx="17" ry="14.6" fill="#d9a07a"/><path d="M104.7 502.6h18.7M104.7 509.1h17.9" stroke="#bf845f" stroke-width="2" stroke-linecap="round" opacity=".7"/></g><path d="M276 274 L290 400 L286 500" fill="none" stroke="#3b5345" stroke-width="48" stroke-linecap="round" stroke-linejoin="round"/><path d="M276 274 L290 400 L286 500" fill="none" stroke="#4f6b5a" stroke-width="44" stroke-linecap="round" stroke-linejoin="round"/><g transform="rotate(0 286 506)"><ellipse cx="286" cy="506" rx="17" ry="14.6" fill="#d9a07a"/><path d="M276.6 502.6h18.7M276.6 509.1h17.9" stroke="#bf845f" stroke-width="2" stroke-linecap="round" opacity=".7"/></g><ellipse cx="150" cy="146" rx="10" ry="15" fill="#bf845f"/><ellipse cx="250" cy="146" rx="10" ry="15" fill="#bf845f"/><path d="M150 118c0-34 22-52 50-52s50 18 50 52v30c0 34-24 58-50 58s-50-24-50-58z" fill="#d9a07a"/><path d="M232 88c12 10 18 26 18 44v16c0 30-18 52-40 56 20-14 28-34 28-60 0-24-2-42-6-56z" fill="#bf845f" opacity=".35"/><ellipse cx="181" cy="141" rx="5" ry="6" fill="#1e2233"/><circle cx="182.6" cy="139" r="1.6" fill="#fff"/><path d="M171 128Q181 121 191 128" stroke="#241a15" stroke-width="4.6" fill="none" stroke-linecap="round"/><ellipse cx="219" cy="141" rx="5" ry="6" fill="#1e2233"/><circle cx="220.6" cy="139" r="1.6" fill="#fff"/><path d="M209 128Q219 121 229 128" stroke="#241a15" stroke-width="4.6" fill="none" stroke-linecap="round"/><path d="M201 146c-2 10-6 16-3 19 3 2 7 1 9-1" stroke="#a86d4c" stroke-width="2.4" fill="none" stroke-linecap="round"/><path d="M189 179c7 2 15 2 22 0" stroke="#a24d45" stroke-width="3.1" fill="none" stroke-linecap="round"/><ellipse cx="172" cy="162" rx="9" ry="5" fill="#e0776b" opacity="0.08"/><ellipse cx="228" cy="162" rx="9" ry="5" fill="#e0776b" opacity="0.08"/><path d="M152 150c2 34 22 56 48 56s46-22 48-56c-6 16-12 22-20 24-10-8-46-8-56 0-8-2-14-8-20-24z" fill="#241a15" opacity=".35"/><path d="M146 130c-6-50 18-74 54-74 38 0 62 24 54 74-4-18-10-28-18-34-20 6-54 6-78-4-6 10-10 22-12 38z" fill="#241a15"/><path d="M170 72c18-8 42-8 58 2" stroke="#fff" stroke-opacity=".17" stroke-width="4" fill="none" stroke-linecap="round"/></g><g transform="translate(468.0 -11.599999999999966) scale(-0.42 0.42)"><defs><linearGradient id="pl2c" x1="0" y1="0" x2="1" y2="1"><stop offset="0" stop-color="#d69a63"/><stop offset="1" stop-color="#a86a38"/></linearGradient></defs><path d="M118 520 L100 868 L160 872 L198 560 Z" fill="#2d3a55"/><path d="M282 520 L300 868 L240 872 L202 560 Z" fill="#243048"/><path d="M92 866h70v14c0 6-4 10-10 10H86c-6 0-8-6-4-10z" fill="#2a2a30"/><path d="M238 866h70l10 14c4 4 2 10-4 10h-66c-6 0-10-4-10-10z" fill="#2a2a30"/><path d="M140 130c-8-56 20-84 60-84s68 28 60 84c-2 50 10 80 22 116-30 12-62 10-82 0V190c-20 10-52 12-82 0 12-36 24-66 22-116z" fill="#6b3f26"/><path d="M182 186h36v52c-10 8-26 8-36 0z" fill="#f1c7a6"/><path d="M182 196c10 14 26 14 36 2v14c-12 8-24 8-36 0z" fill="#dca283"/><path d="M170 236c10 16 50 16 60 0v40h-60z" fill="#efeae2"/><path d="M200 234c-40 0-70 8-82 28-12 20-14 90-12 278H294c2-188 0-214-12-244c-12-20-42-28-82-28z" fill="url(#pl2c)"/><clipPath id="pl2tc"><path d="M200 234c-40 0-70 8-82 28-12 20-14 90-12 278H294c2-188 0-214-12-244c-12-20-42-28-82-28z"/></clipPath><g clip-path="url(#pl2tc)"><path d="M232 230 L320 230 L320 540 L262 540 C270 420 262 300 232 230z" fill="#000" opacity=".12"/><path d="M110 250 C124 300 126 400 126 540 L96 540 L96 250z" fill="#fff" opacity=".06"/></g><path d="M168 238l32 90 32-90 14 4-30 110h-32l-30-110z" fill="#a86a38" opacity=".5"/><path d="M200 330V540" stroke="#a86a38" stroke-width="3"/><path d="M262 250L150 470" stroke="#3b2618" stroke-width="7"/><rect x="118" y="452" width="70" height="56" rx="10" fill="#4a2f1e"/><rect x="118" y="452" width="70" height="16" rx="6" fill="#5b3a26"/><path d="M124 274 L110 400 L114 500" fill="none" stroke="#a86a38" stroke-width="48" stroke-linecap="round" stroke-linejoin="round"/><path d="M124 274 L110 400 L114 500" fill="none" stroke="#d69a63" stroke-width="44" stroke-linecap="round" stroke-linejoin="round"/><g transform="rotate(0 114 506)"><ellipse cx="114" cy="506" rx="17" ry="14.6" fill="#f1c7a6"/><path d="M104.7 502.6h18.7M104.7 509.1h17.9" stroke="#dca283" stroke-width="2" stroke-linecap="round" opacity=".7"/></g><path d="M276 274 L290 400 L286 500" fill="none" stroke="#a86a38" stroke-width="48" stroke-linecap="round" stroke-linejoin="round"/><path d="M276 274 L290 400 L286 500" fill="none" stroke="#c7864e" stroke-width="44" stroke-linecap="round" stroke-linejoin="round"/><g transform="rotate(0 286 506)"><ellipse cx="286" cy="506" rx="17" ry="14.6" fill="#f1c7a6"/><path d="M276.6 502.6h18.7M276.6 509.1h17.9" stroke="#dca283" stroke-width="2" stroke-linecap="round" opacity=".7"/></g><ellipse cx="150" cy="146" rx="10" ry="15" fill="#dca283"/><ellipse cx="250" cy="146" rx="10" ry="15" fill="#dca283"/><path d="M150 118c0-34 22-52 50-52s50 18 50 52v30c0 34-24 58-50 58s-50-24-50-58z" fill="#f1c7a6"/><path d="M232 88c12 10 18 26 18 44v16c0 30-18 52-40 56 20-14 28-34 28-60 0-24-2-42-6-56z" fill="#dca283" opacity=".35"/><ellipse cx="181" cy="141" rx="5" ry="6" fill="#1e2233"/><circle cx="182.6" cy="139" r="1.6" fill="#fff"/><path d="M171 128Q181 121 191 128" stroke="#6b3f26" stroke-width="3.2" fill="none" stroke-linecap="round"/><path d="M174 136q7-5 14 0" stroke="#1e2233" stroke-width="1.8" fill="none" stroke-linecap="round"/><ellipse cx="219" cy="141" rx="5" ry="6" fill="#1e2233"/><circle cx="220.6" cy="139" r="1.6" fill="#fff"/><path d="M209 128Q219 121 229 128" stroke="#6b3f26" stroke-width="3.2" fill="none" stroke-linecap="round"/><path d="M212 136q7-5 14 0" stroke="#1e2233" stroke-width="1.8" fill="none" stroke-linecap="round"/><path d="M201 146c-2 10-6 16-3 19 3 2 7 1 9-1" stroke="#c98a6c" stroke-width="2.4" fill="none" stroke-linecap="round"/><path d="M189 179c7 2 15 2 22 0" stroke="#a24d45" stroke-width="3.1" fill="none" stroke-linecap="round"/><ellipse cx="172" cy="162" rx="9" ry="5" fill="#e0776b" opacity="0.22"/><ellipse cx="228" cy="162" rx="9" ry="5" fill="#e0776b" opacity="0.22"/><path d="M148 132c-2-42 22-66 52-66 32 0 54 24 52 66-10-24-26-40-44-44-10 20-34 36-60 44z" fill="#6b3f26"/><path d="M214 76c14 4 26 14 32 30" stroke="#fff" stroke-opacity=".17" stroke-width="4" fill="none" stroke-linecap="round"/></g></svg>