<svg xmlns="http://www.w3.org/2000/svg" viewBox="0 0 520 430"><defs><linearGradient id="bg" x1="0" y1="0" x2="1" y2="1"><stop stop-color="#edf5ff"/><stop offset="1" stop-color="#dfeaff"/></linearGradient><linearGradient id="u" x1="0" y1="0" x2="0" y2="1"><stop stop-color="#172e69"/><stop offset="1" stop-color="#0e204f"/></linearGradient></defs><path d="M38 351C64 214 144 96 300 56c93-24 165 20 182 107 21 108-67 220-190 240-116 19-268 18-254-52z" fill="url(#bg)"/><circle cx="335" cy="88" r="55" fill="#fff" opacity=".6"/><path d="M78 337h380" stroke="#b9cae8" stroke-width="5" stroke-linecap="round"/><g transform="translate(150 22)"><ellipse cx="140" cy="374" rx="118" ry="18" fill="#b7c8e5" opacity=".55"/><circle cx="142" cy="91" r="55" fill="#e7b58f"/><path d="M89 83c2-48 37-72 75-63 29 7 47 33 43 69-25-19-79-23-118-6z" fill="#263458"/><path d="M96 110c12 23 28 34 46 34 20 0 38-12 50-36-4 43-19 65-50 65-29 0-43-20-46-63z" fill="#d99d76" opacity=".5"/><path d="M69 182c40-46 109-47 151 0l31 154H37z" fill="url(#u)"/><path d="M110 163h64l-10 75h-44z" fill="#e9f0fb"/><path d="M78 201 25 307M211 201l54 106" stroke="#e7b58f" stroke-width="28" stroke-linecap="round"/><path d="M47 326h191l18 58H29z" fill="#213b80"/><rect x="111" y="191" width="64" height="70" rx="9" fill="#f7fbff" stroke="#a9bbda" stroke-width="3"/><rect x="119" y="201" width="48" height="19" rx="4" fill="#1e3b84"/><text x="143" y="215" text-anchor="middle" font-family="Arial" font-size="14" font-weight="700" fill="white">BOA</text><path d="M121 231h44M121 241h31" stroke="#7186ad" stroke-width="4" stroke-linecap="round"/><path d="M88 182h108" stroke="#4e6db1" stroke-width="4"/><circle cx="111" cy="91" r="4" fill="#303a4e"/><circle cx="171" cy="91" r="4" fill="#303a4e"/><path d="M126 116c10 8 21 8 31 0" fill="none" stroke="#9b5f4e" stroke-width="4" stroke-linecap="round"/></g><g fill="#27469b" opacity=".75"><circle cx="74" cy="119" r="7"/><circle cx="96" cy="98" r="4"/><circle cx="438" cy="266" r="5"/></g></svg>